<?xml version="1.0" standalone="no"?>
<!DOCTYPE svg PUBLIC "-//W3C//DTD SVG 20010904//EN"
 "http://www.w3.org/TR/2001/REC-SVG-20010904/DTD/svg10.dtd">
<svg version="1.0" xmlns="http://www.w3.org/2000/svg"
 width="244.000000pt" height="244.000000pt" viewBox="0 0 244.000000 244.000000"
 preserveAspectRatio="xMidYMid meet">
<metadata>
Created by potrace 1.11, written by Peter Selinger 2001-2013
</metadata>
<g transform="translate(0.000000,244.000000) scale(0.100000,-0.100000)"
fill="#000000" stroke="none">
<path d="M1565 2433 c-227 -46 -408 -224 -451 -445 -4 -18 -7 -119 -8 -225 -1
-105 -5 -195 -9 -199 -3 -4 -150 -7 -324 -8 l-318 -1 -2 -57 c-3 -77 14 -127
54 -154 l33 -22 617 2 618 2 66 25 c179 69 292 183 357 364 22 62 30 187 17
270 -33 197 -205 383 -405 436 -59 15 -194 22 -245 12z m175 -238 c90 -19 175
-91 218 -183 34 -75 37 -183 5 -253 -40 -90 -124 -164 -215 -188 -37 -11 -285
-18 -396 -12 -11 1 -13 39 -10 204 3 201 3 202 32 260 70 138 213 205 366 172z"/>
<path d="M1105 1156 l2 -33 -191 0 c-114 0 -215 -5 -251 -12 -211 -44 -387
-219 -430 -429 -97 -465 380 -827 806 -612 116 59 226 188 270 317 20 59 24
88 24 218 l0 150 -108 0 c-60 0 -111 -2 -115 -5 -4 -3 -8 -57 -8 -120 -1 -63
-6 -134 -13 -157 -18 -64 -70 -134 -130 -174 -240 -160 -552 46 -497 329 22
111 122 220 230 249 11 4 242 7 511 8 548 3 542 2 571 70 18 44 19 165 2 166
-7 1 -109 1 -225 1 l-213 1 0 33 0 34 -119 0 -119 0 3 -34z"/>
</g>
</svg>
