<?xml version="1.0" encoding="utf-8"?>
<!-- Generator: Adobe Illustrator 25.0.1, SVG Export Plug-In . SVG Version: 6.00 Build 0)  -->
<svg version="1.1" id="Layer_1" xmlns="http://www.w3.org/2000/svg" xmlns:xlink="http://www.w3.org/1999/xlink" x="0px" y="0px"
	 viewBox="0 0 44.4 55" style="enable-background:new 0 0 44.4 55;" xml:space="preserve">
<style type="text/css">
	.st0{fill:#FFFFFF;}
</style>
<path class="st0" d="M34.8,29.7h-10l0-4.5l7.2,0c6.8,0,12.4-5.6,12.4-12.4c0-3.3-1.3-6.4-3.6-8.8c-2.3-2.3-5.5-3.6-8.8-3.6
	c-6.8,0-12.4,5.6-12.4,12.4l0,7.2l-14.5,0v2.6h0c0,1.4,1.2,2.6,2.6,2.6h11.9l0,4.5l-7.2,0C5.6,29.7,0,35.3,0,42.1
	c0,3.3,1.3,6.4,3.6,8.8c2.3,2.3,5.5,3.6,8.8,3.6c6.8,0,12.4-5.6,12.4-12.4l0-7.2l7.4,0c1.4,0,2.6-1.2,2.6-2.6l0,0L34.8,29.7z
	 M19.6,42.1c0,4-3.2,7.2-7.2,7.2c-1.9,0-3.7-0.8-5.1-2.1c-1.4-1.4-2.1-3.2-2.1-5.1c0-4,3.2-7.2,7.2-7.2l7.2,0V42.1z M32,20.1h-7.2
	l0-7.2c0-4,3.2-7.2,7.2-7.2c1.9,0,3.7,0.8,5.1,2.1c1.4,1.4,2.1,3.2,2.1,5.1C39.2,16.9,36,20.1,32,20.1z"/>
</svg>
